#!OML:ASF H:\LiuWeirdWalks\Patient Classification 1\Patient 1\Session 1\male.ASF
:FULLY-SPECIFIED
:DEGREES
178
root -0.387477 17.6752 -14.9354 9.00703 4.78178 8.85972
lowerback 11.2828 -0.173392 -9.92833
upperback -0.340366 -1.55106 0.0268094
thorax -6.46488 -0.427168 5.89178
lowerneck -18.7716 -0.0279383 4.38575
upperneck 16.6529 -0.0945092 -5.68449
head 8.25323 -0.359369 -2.64774
rclavicle 9.93923e-015 -3.26007e-014
rhumerus -40.7974 -12.619 -69.9777
rradius 21.861
rwrist -2.68213
rhand -18.5396 -5.01205
rfingers 7.12502
rthumb 7.74951 -34.85
lclavicle 9.93923e-015 -3.26007e-014
lhumerus -23.1944 -2.39796 87.9118
lradius 29.4802
lwrist 11.7357
lhand -17.3672 -1.7989
lfingers 7.12502
lthumb 8.88097 27.9942
rfemur -42.4238 -13.1435 11.6914
rtibia 57.0702
rfoot -12.4487 -17.1833
rtoes 4.2587
lfemur -5.26969 1.6523 -32.5948
ltibia 21.5419
lfoot -15.3448 15.2466
ltoes -10.7118
179
root -0.380407 17.6662 -14.6952 9.12889 4.70455 9.00289
lowerback 11.1713 -0.187436 -10.239
upperback -0.401812 -1.60449 -0.0139916
thorax -6.45363 -0.441997 6.0296
lowerneck -18.8236 -0.0309796 4.37424
upperneck 16.6986 -0.125109 -5.54246
head 8.27612 -0.360296 -2.60275
rclavicle -2.50469e-014 -7.95139e-015
rhumerus -41.7914 -13.3646 -69.1477
rradius 21.1259
rwrist -1.62174
rhand -18.5579 -4.97095
rfingers 7.12502
rthumb 7.73192 -34.8096
lclavicle -2.50469e-014 -7.95139e-015
lhumerus -22.1647 -3.29283 88.034
lradius 30.8082
lwrist 12.5256
lhand -17.3147 -1.98319
lfingers 7.12502
lthumb 8.93166 27.8078
rfemur -43.4177 -12.8019 11.9138
rtibia 54.2001
rfoot -12.3359 -17.2937
rtoes 3.28873
lfemur -3.82125 1.77318 -32.7156
ltibia 20.1932
lfoot -14.9919 15.3056
ltoes -11.4279
180
root -0.375431 17.6583 -14.4521 9.26718 4.63765 9.07544
lowerback 11.0296 -0.211878 -10.4883
upperback -0.471207 -1.65863 -0.035882
thorax -6.43399 -0.459035 6.15225
lowerneck -18.851 -0.0360749 4.33984
upperneck 16.752 -0.154692 -5.38293
head 8.29747 -0.360016 -2.54777
rclavicle -6.26172e-015 1.03368e-014
rhumerus -42.7807 -14.0874 -68.2999
rradius 20.4363
rwrist -0.64222
rhand -18.4513 -5.1503
rfingers 7.12502
rthumb 7.83476 -34.9851
lclavicle -6.26172e-015 1.03368e-014
lhumerus -21.1913 -4.1062 88.0843
lradius 32.1869
lwrist 13.2599
lhand -17.2654 -2.1355
lfingers 7.12502
lthumb 8.97922 27.6534
rfemur -44.2849 -12.4404 12.2029
rtibia 51.2093
rfoot -12.0745 -17.4254
rtoes 2.19727
lfemur -2.31755 1.96292 -32.7371
ltibia 18.702
lfoot -14.5502 15.2812
ltoes -12.2424
181
root -0.372291 17.6511 -14.2058 9.41143 4.6106 9.10614
lowerback 10.8745 -0.253979 -10.6874
upperback -0.543345 -1.72693 -0.0479294
thorax -6.40755 -0.484767 6.25861
lowerneck -18.8751 -0.0293176 4.31709
upperneck 16.8099 -0.166526 -5.24586
head 8.32082 -0.352852 -2.50019
rclavicle 4.67144e-015 9.54166e-015
rhumerus -43.7725 -14.8307 -67.406
rradius 19.7627
rwrist 0.3962
rhand -18.2789 -5.39274
rfingers 7.12502
rthumb 8.00118 -35.2213
lclavicle 4.67144e-015 9.54166e-015
lhumerus -20.2762 -4.84505 88.0711
lradius 33.6081
lwrist 13.9268
lhand -17.2655 -2.34586
lfingers 7.12502
lthumb 8.97914 27.443
rfemur -45.0141 -12.1093 12.5264
rtibia 48.1504
rfoot -11.638 -17.5357
rtoes 0.926225
lfemur -0.745172 2.20944 -32.6863
ltibia 17.0743
lfoot -14.0075 15.1723
ltoes -13.1391
182
root -0.370983 17.6448 -13.9566 9.56142 4.64387 9.09495
lowerback 10.7074 -0.322407 -10.8319
upperback -0.614777 -1.82024 -0.0473749
thorax -6.36918 -0.525076 6.3508
lowerneck -18.8941 -0.0149792 4.32107
upperneck 16.8167 -0.167987 -5.15203
head 8.32648 -0.343574 -2.46947
rclavicle 1.98785e-015 1.59028e-015
rhumerus -44.7584 -15.6298 -66.4363
rradius 19.0706
rwrist 1.60719
rhand -18.088 -5.56464
rfingers 7.12502
rthumb 8.18542 -35.3861
lclavicle 1.98785e-015 1.59028e-015
lhumerus -19.4266 -5.52046 87.9947
lradius 35.0768
lwrist 14.5401
lhand -17.3096 -2.61417
lfingers 7.12502
lthumb 8.93663 27.1766
rfemur -45.6085 -11.8149 12.8758
rtibia 45.0804
rfoot -10.9965 -17.5843
rtoes -0.550973
lfemur 0.890914 2.46595 -32.563
ltibia 15.3139
lfoot -13.3483 15.0025
ltoes -14.0812
183
root -0.371168 17.64 -13.7043 9.70796 4.75077 9.04543
lowerback 10.5288 -0.425428 -10.9224
upperback -0.676531 -1.94917 -0.0325573
thorax -6.30729 -0.586205 6.43202
lowerneck -18.9331 -0.00644598 4.30668
upperneck 16.826 -0.173766 -5.05416
head 8.33634 -0.337311 -2.43512
rclavicle 1.60022e-014 -7.95139e-016
rhumerus -45.7386 -16.4888 -65.3756
rradius 18.3523
rwrist 3.03758
rhand -17.9138 -5.55684
rfingers 7.12502
rthumb 8.35351 -35.3717
lclavicle 1.60022e-014 -7.95139e-016
lhumerus -18.6223 -6.10821 87.8569
lradius 36.5617
lwrist 15.0754
lhand -17.3827 -2.90241
lfingers 7.12502
lthumb 8.86601 26.8913
rfemur -46.0643 -11.562 13.2352
rtibia 42.0667
rfoot -10.2103 -17.5453
rtoes -2.21322
lfemur 2.60417 2.67585 -32.3727
ltibia 13.4124
lfoot -12.5351 14.7976
ltoes -15.0617
184
root -0.371881 17.6361 -13.4488 9.84219 4.92978 8.96892
lowerback 10.3389 -0.557957 -10.9527
upperback -0.721734 -2.1065 -0.0110861
thorax -6.21641 -0.665649 6.48897
lowerneck -19.024 0.0161438 4.31153
upperneck 16.841 -0.163124 -4.97742
head 8.35802 -0.324783 -2.40967
rclavicle -2.45499e-014 1.63003e-014
rhumerus -46.7329 -17.4316 -64.2009
rradius 17.6154
rwrist 4.72776
rhand -17.808 -5.33701
rfingers 7.12502
rthumb 8.45567 -35.1477
lclavicle -2.45499e-014 1.63003e-014
lhumerus -17.8614 -6.63972 87.6659
lradius 38.0521
lwrist 15.5356
lhand -17.5042 -3.21432
lfingers 7.12502
lthumb 8.74879 26.5844
rfemur -46.3823 -11.3394 13.5717
rtibia 39.1821
rfoot -9.37643 -17.4176
rtoes -4.05947
lfemur 4.41084 2.80715 -32.133
ltibia 11.3629
lfoot -11.5586 14.5657
ltoes -16.0395
185
root -0.372947 17.633 -13.1898 9.95125 5.17206 8.87786
lowerback 10.1577 -0.717101 -10.9475
upperback -0.752468 -2.29416 0.0218917
thorax -6.10919 -0.76263 6.5414
lowerneck -19.0935 0.0369063 4.29986
upperneck 16.8543 -0.150912 -4.89443
head 8.37548 -0.311679 -2.37892
rclavicle 8.34896e-015 3.97569e-016
rhumerus -47.7485 -18.4089 -62.9158
rradius 16.8722
rwrist 6.63683
rhand -17.7968 -4.87427
rfingers 7.12502
rthumb 8.4664 -34.6846
lclavicle 8.34896e-015 3.97569e-016
lhumerus -17.1613 -7.088 87.4373
lradius 39.5376
lwrist 15.8625
lhand -17.6894 -3.54924
lfingers 7.12502
lthumb 8.57012 26.2568
rfemur -46.5574 -11.1193 13.849
rtibia 36.5062
rfoot -8.66476 -17.2123
rtoes -6.00753
lfemur 6.34766 2.67885 -31.8762
ltibia 9.11821
lfoot -10.3242 14.4333
ltoes -17.0224
186
root -0.374419 17.6308 -12.9277 10.0373 5.47999 8.7592
lowerback 9.97573 -0.901758 -10.897
upperback -0.770295 -2.50831 0.0733018
thorax -5.98295 -0.875594 6.59009
lowerneck -19.1699 0.0640183 4.27822
upperneck 16.8785 -0.125316 -4.82014
head 8.39854 -0.293863 -2.34801
rclavicle -1.63997e-014 1.11319e-014
rhumerus -48.7804 -19.4192 -61.5211
rradius 16.1541
rwrist 8.63004
rhand -17.8393 -4.35616
rfingers 7.12502
rthumb 8.42539 -34.1681
lclavicle -1.63997e-014 1.11319e-014
lhumerus -16.5138 -7.45688 87.1845
lradius 41.0104
lwrist 16.1022
lhand -17.9084 -3.79866
lfingers 7.12502
lthumb 8.3587 26.0159
rfemur -46.599 -10.8556 14.0522
rtibia 34.1154
rfoot -8.24137 -16.9784
rtoes -7.8815
lfemur 8.46926 2.49132 -31.5722
ltibia 6.56098
lfoot -8.82811 14.1581
ltoes -18.0483
187
root -0.376298 17.6285 -12.6626 10.0944 5.84296 8.64176
lowerback 9.81521 -1.10252 -10.8253
upperback -0.776252 -2.74312 0.132381
thorax -5.8525 -1.00012 6.6368
lowerneck -19.2685 0.104659 4.26638
upperneck 16.9133 -0.0772181 -4.78085
head 8.43013 -0.26871 -2.32813
rclavicle -4.19436e-014 1.82882e-014
rhumerus -49.8303 -20.4601 -60.0236
rradius 15.4857
rwrist 10.6025
rhand -17.8681 -3.86565
rfingers 7.12502
rthumb 8.39761 -33.6787
lclavicle -4.19436e-014 1.82882e-014
lhumerus -15.9204 -7.773 86.9189
lradius 42.4602
lwrist 16.3028
lhand -18.1825 -4.08215
lfingers 7.12502
lthumb 8.09421 25.7428
rfemur -46.5131 -10.5309 14.1384
rtibia 32.0781
rfoot -8.21814 -16.7134
rtoes -9.67121
lfemur 11.061 2.2485 -31.2449
ltibia 3.14813
lfoot -6.80959 13.6088
ltoes -19.1393
188
root -0.379054 17.6264 -12.3939 10.1094 6.2394 8.50342
lowerback 9.6843 -1.3089 -10.733
upperback -0.775404 -2.98546 0.211645
thorax -5.72997 -1.12859 6.69414
lowerneck -19.3304 0.157998 4.29774
upperneck 16.9225 -0.0064389 -4.82253
head 8.4477 -0.238382 -2.3393
rclavicle -3.47873e-015 3.69739e-014
rhumerus -50.8701 -21.4031 -58.5402
rradius 14.9322
rwrist 12.26
rhand -17.8008 -3.65175
rfingers 7.12502
rthumb 8.46254 -33.4622
lclavicle -3.47873e-015 3.69739e-014
lhumerus -15.4026 -8.03256 86.6601
lradius 43.8803
lwrist 16.4714
lhand -18.5003 -4.36633
lfingers 7.12502
lthumb 7.78746 25.4703
rfemur -46.293 -10.0872 14.1161
rtibia 30.447
rfoot -8.5656 -16.478
rtoes -11.2122
lfemur 13.5599 1.97461 -30.864
ltibia 6.36111e-015
lfoot -4.77649 12.9498
ltoes -20.3473
